<?xml version="1.0" encoding="UTF-8" standalone="no"?>
<?xml-stylesheet href="styles.css" type="text/css"?>
<!DOCTYPE svg PUBLIC "-//W3C//DTD SVG 1.1//EN"
 "http://www.w3.org/Graphics/SVG/1.1/DTD/svg11.dtd">
<!-- Generated by graphviz version 2.40.1 (0)
 -->
<!-- Title: MyManyDynamicElementVecFir Pages: 1 -->
<svg width="708pt" height="289pt"
 viewBox="0.00 0.00 708.00 288.97" xmlns="http://www.w3.org/2000/svg" xmlns:xlink="http://www.w3.org/1999/xlink">
<g id="graph0" class="graph" transform="scale(1 1) rotate(0) translate(4 284.9743)">
<title>MyManyDynamicElementVecFir</title>
<polygon fill="#ffffff" stroke="transparent" points="-4,4 -4,-284.9743 704,-284.9743 704,4 -4,4"/>
<g id="clust1" class="cluster">
<title>cluster_MyManyDynamicElementVecFir</title>
<polygon fill="#fff8dc" stroke="#000000" points="8,-35.9743 8,-272.9743 692,-272.9743 692,-35.9743 8,-35.9743"/>
<text text-anchor="middle" x="350" y="-257.7743" font-family="Times,serif" font-size="14.00" fill="#000000">MyManyDynamicElementVecFir</text>
</g>
<!-- cluster_MyManyDynamicElementVecFir_clock -->
<g id="node1" class="node">
<title>cluster_MyManyDynamicElementVecFir_clock</title>
<polygon fill="#cccccc" stroke="#000000" points="107.5,-241.9743 52.5,-241.9743 52.5,-205.9743 107.5,-205.9743 107.5,-241.9743"/>
<text text-anchor="middle" x="80" y="-220.2743" font-family="Times,serif" font-size="14.00" fill="#000000">clock</text>
</g>
<!-- cluster_MyManyDynamicElementVecFir_reset -->
<g id="node2" class="node">
<title>cluster_MyManyDynamicElementVecFir_reset</title>
<polygon fill="#cccccc" stroke="#000000" points="107,-187.9743 53,-187.9743 53,-151.9743 107,-151.9743 107,-187.9743"/>
<text text-anchor="middle" x="80" y="-166.2743" font-family="Times,serif" font-size="14.00" fill="#000000">reset</text>
</g>
<!-- cluster_MyManyDynamicElementVecFir_io_muxIn -->
<g id="node3" class="node">
<title>cluster_MyManyDynamicElementVecFir_io_muxIn</title>
<polygon fill="#cccccc" stroke="#000000" points="121.5,-133.9743 38.5,-133.9743 38.5,-97.9743 121.5,-97.9743 121.5,-133.9743"/>
<text text-anchor="middle" x="80" y="-112.2743" font-family="Times,serif" font-size="14.00" fill="#000000">io_muxIn</text>
</g>
<!-- mux_176333046 -->
<g id="node9" class="node">
<title>mux_176333046</title>
<polygon fill="#afeeee" stroke="transparent" points="198,-143.9743 198,-193.9743 270,-193.9743 270,-143.9743 198,-143.9743"/>
<polygon fill="none" stroke="#000000" points="198,-168.9743 198,-193.9743 221,-193.9743 221,-168.9743 198,-168.9743"/>
<text text-anchor="start" x="203" y="-177.7743" font-family="Times,serif" font-size="14.00" fill="#000000">●</text>
<polygon fill="none" stroke="#000000" points="221,-143.9743 221,-193.9743 247,-193.9743 247,-143.9743 221,-143.9743"/>
<text text-anchor="start" x="226" y="-165.2743" font-family="Times,serif" font-size="14.00" fill="#000000">a?</text>
<polygon fill="none" stroke="#000000" points="247,-143.9743 247,-193.9743 270,-193.9743 270,-143.9743 247,-143.9743"/>
<text text-anchor="start" x="252" y="-165.2743" font-family="Times,serif" font-size="14.00" fill="#000000">●</text>
<polygon fill="none" stroke="#000000" points="198,-143.9743 198,-168.9743 221,-168.9743 221,-143.9743 198,-143.9743"/>
<text text-anchor="start" x="204.5" y="-152.7743" font-family="Times,serif" font-size="14.00" fill="#000000">0</text>
</g>
<!-- cluster_MyManyDynamicElementVecFir_io_muxIn&#45;&gt;mux_176333046 -->
<g id="edge2" class="edge">
<title>cluster_MyManyDynamicElementVecFir_io_muxIn&#45;&gt;mux_176333046:select</title>
<path fill="none" stroke="#000000" d="M121.6746,-122.5485C156.7712,-128.1961 204.3686,-136.1449 224.4439,-140.8129"/>
<polygon fill="#000000" stroke="#000000" points="223.4067,-144.1563 234,-143.9743 225.6053,-137.5105 223.4067,-144.1563"/>
</g>
<!-- cluster_MyManyDynamicElementVecFir_io_init -->
<g id="node4" class="node">
<title>cluster_MyManyDynamicElementVecFir_io_init</title>
<polygon fill="#cccccc" stroke="#000000" points="538,-99.9743 477,-99.9743 477,-63.9743 538,-63.9743 538,-99.9743"/>
<text text-anchor="middle" x="507.5" y="-78.2743" font-family="Times,serif" font-size="14.00" fill="#000000">io_init</text>
</g>
<!-- mux_168695935 -->
<g id="node10" class="node">
<title>mux_168695935</title>
<polygon fill="#afeeee" stroke="transparent" points="604,-56.9743 604,-106.9743 676,-106.9743 676,-56.9743 604,-56.9743"/>
<polygon fill="none" stroke="#000000" points="604,-81.9743 604,-106.9743 627,-106.9743 627,-81.9743 604,-81.9743"/>
<text text-anchor="start" x="609" y="-90.7743" font-family="Times,serif" font-size="14.00" fill="#000000">●</text>
<polygon fill="none" stroke="#000000" points="627,-56.9743 627,-106.9743 653,-106.9743 653,-56.9743 627,-56.9743"/>
<text text-anchor="start" x="632" y="-78.2743" font-family="Times,serif" font-size="14.00" fill="#000000">a?</text>
<polygon fill="none" stroke="#000000" points="653,-56.9743 653,-106.9743 676,-106.9743 676,-56.9743 653,-56.9743"/>
<text text-anchor="start" x="658" y="-78.2743" font-family="Times,serif" font-size="14.00" fill="#000000">●</text>
<polygon fill="none" stroke="#000000" points="604,-56.9743 604,-81.9743 627,-81.9743 627,-56.9743 604,-56.9743"/>
<text text-anchor="start" x="610.5" y="-65.7743" font-family="Times,serif" font-size="14.00" fill="#000000">2</text>
</g>
<!-- cluster_MyManyDynamicElementVecFir_io_init&#45;&gt;mux_168695935 -->
<g id="edge8" class="edge">
<title>cluster_MyManyDynamicElementVecFir_io_init&#45;&gt;mux_168695935:select</title>
<path fill="none" stroke="#000000" d="M538.2312,-64.1055C573.5506,-45.0976 627.9921,-21.0402 638.2884,-46.7932"/>
<polygon fill="#000000" stroke="#000000" points="634.8905,-47.693 640,-56.9743 641.7936,-46.5324 634.8905,-47.693"/>
</g>
<!-- cluster_MyManyDynamicElementVecFir_io_muxOut -->
<g id="node5" class="node">
<title>cluster_MyManyDynamicElementVecFir_io_muxOut</title>
<polygon fill="#e0ffff" stroke="#000000" points="419,-186.9743 324,-186.9743 324,-150.9743 419,-150.9743 419,-186.9743"/>
<text text-anchor="middle" x="371.5" y="-165.2743" font-family="Times,serif" font-size="14.00" fill="#000000">io_muxOut</text>
</g>
<!-- struct_cluster_MyManyDynamicElementVecFir_counter -->
<g id="node6" class="node">
<title>struct_cluster_MyManyDynamicElementVecFir_counter</title>
<polygon fill="#ffe4b5" stroke="transparent" points="24,-49.4743 24,-74.4743 136,-74.4743 136,-49.4743 24,-49.4743"/>
<polygon fill="none" stroke="#000000" points="24,-48.9743 24,-73.9743 47,-73.9743 47,-48.9743 24,-48.9743"/>
<text text-anchor="start" x="29" y="-57.7743" font-family="Times,serif" font-size="14.00" fill="#000000">●</text>
<polygon fill="none" stroke="#000000" points="47,-48.9743 47,-73.9743 113,-73.9743 113,-48.9743 47,-48.9743"/>
<text text-anchor="start" x="52" y="-57.7743" font-family="Times,serif" font-size="14.00" fill="#000000">counter</text>
<polygon fill="none" stroke="#000000" points="113,-48.9743 113,-73.9743 136,-73.9743 136,-48.9743 113,-48.9743"/>
<text text-anchor="start" x="118" y="-57.7743" font-family="Times,serif" font-size="14.00" fill="#000000">●</text>
</g>
<!-- op_add_14 -->
<g id="node8" class="node">
<title>op_add_14</title>
<polygon fill="#d8bfd8" stroke="transparent" points="188,-67.9743 188,-117.9743 280,-117.9743 280,-67.9743 188,-67.9743"/>
<polygon fill="none" stroke="#000000" points="188,-92.9743 188,-117.9743 211,-117.9743 211,-92.9743 188,-92.9743"/>
<text text-anchor="start" x="193" y="-101.7743" font-family="Times,serif" font-size="14.00" fill="#000000">●</text>
<polygon fill="none" stroke="#000000" points="211,-67.9743 211,-117.9743 257,-117.9743 257,-67.9743 211,-67.9743"/>
<text text-anchor="start" x="216" y="-89.2743" font-family="Times,serif" font-size="14.00" fill="#000000"> add </text>
<polygon fill="none" stroke="#000000" points="257,-67.9743 257,-117.9743 280,-117.9743 280,-67.9743 257,-67.9743"/>
<text text-anchor="start" x="262" y="-89.2743" font-family="Times,serif" font-size="14.00" fill="#000000">●</text>
<polygon fill="none" stroke="#000000" points="188,-67.9743 188,-92.9743 211,-92.9743 211,-67.9743 188,-67.9743"/>
<text text-anchor="start" x="194.5" y="-76.7743" font-family="Times,serif" font-size="14.00" fill="#000000">1</text>
</g>
<!-- struct_cluster_MyManyDynamicElementVecFir_counter&#45;&gt;op_add_14 -->
<g id="edge3" class="edge">
<title>struct_cluster_MyManyDynamicElementVecFir_counter:out&#45;&gt;op_add_14:in1</title>
<path fill="none" stroke="#000000" d="M136,-60.9743C162.5042,-60.9743 159.1608,-94.8149 177.7367,-103.8039"/>
<polygon fill="#000000" stroke="#000000" points="177.4922,-107.3295 188,-105.9743 178.9406,-100.4809 177.4922,-107.3295"/>
</g>
<!-- struct_cluster_MyManyDynamicElementVecFir_counter&#45;&gt;mux_176333046 -->
<g id="edge6" class="edge">
<title>struct_cluster_MyManyDynamicElementVecFir_counter:out&#45;&gt;mux_176333046:in1</title>
<path fill="none" stroke="#000000" d="M136,-60.9743C192.6498,-60.9743 144.4642,-167.322 188.0096,-180.6154"/>
<polygon fill="#000000" stroke="#000000" points="187.6195,-184.0945 198,-181.9743 188.563,-177.1584 187.6195,-184.0945"/>
</g>
<!-- cluster_MyManyDynamicElementVecFir__T -->
<g id="node7" class="node">
<title>cluster_MyManyDynamicElementVecFir__T</title>
<polygon fill="none" stroke="#000000" points="398.5,-121.9743 344.5,-121.9743 344.5,-85.9743 398.5,-85.9743 398.5,-121.9743"/>
<text text-anchor="middle" x="371.5" y="-100.2743" font-family="Times,serif" font-size="14.00" fill="#000000">_T</text>
</g>
<!-- op_tail_15 -->
<g id="node11" class="node">
<title>op_tail_15</title>
<polygon fill="#d8bfd8" stroke="transparent" points="463,-121.9743 463,-171.9743 552,-171.9743 552,-121.9743 463,-121.9743"/>
<polygon fill="none" stroke="#000000" points="463.5,-146.9743 463.5,-171.9743 486.5,-171.9743 486.5,-146.9743 463.5,-146.9743"/>
<text text-anchor="start" x="468.5" y="-155.7743" font-family="Times,serif" font-size="14.00" fill="#000000">●</text>
<polygon fill="none" stroke="#000000" points="486.5,-121.9743 486.5,-171.9743 529.5,-171.9743 529.5,-121.9743 486.5,-121.9743"/>
<text text-anchor="start" x="491.5" y="-143.2743" font-family="Times,serif" font-size="14.00" fill="#000000"> tail </text>
<polygon fill="none" stroke="#000000" points="529.5,-121.9743 529.5,-171.9743 552.5,-171.9743 552.5,-121.9743 529.5,-121.9743"/>
<text text-anchor="start" x="534.5" y="-143.2743" font-family="Times,serif" font-size="14.00" fill="#000000">●</text>
<polygon fill="none" stroke="#000000" points="463.5,-121.9743 463.5,-146.9743 486.5,-146.9743 486.5,-121.9743 463.5,-121.9743"/>
<text text-anchor="start" x="470" y="-130.7743" font-family="Times,serif" font-size="14.00" fill="#000000">1</text>
</g>
<!-- cluster_MyManyDynamicElementVecFir__T&#45;&gt;op_tail_15 -->
<g id="edge4" class="edge">
<title>cluster_MyManyDynamicElementVecFir__T&#45;&gt;op_tail_15:in1</title>
<path fill="none" stroke="#000000" d="M394.7132,-122.0013C412.6142,-135.3024 437.0227,-152.0573 453.5199,-157.8728"/>
<polygon fill="#000000" stroke="#000000" points="452.9934,-161.3386 463.5,-159.9743 454.4358,-154.4888 452.9934,-161.3386"/>
</g>
<!-- op_add_14&#45;&gt;cluster_MyManyDynamicElementVecFir__T -->
<g id="edge5" class="edge">
<title>op_add_14:out&#45;&gt;cluster_MyManyDynamicElementVecFir__T</title>
<path fill="none" stroke="#000000" d="M280,-92.9743C297.8498,-92.9743 317.5191,-95.0634 334.0322,-97.4207"/>
<polygon fill="#000000" stroke="#000000" points="333.9653,-100.9505 344.377,-98.9893 335.0148,-94.0296 333.9653,-100.9505"/>
</g>
<!-- mux_176333046&#45;&gt;cluster_MyManyDynamicElementVecFir_io_muxOut -->
<g id="edge7" class="edge">
<title>mux_176333046:out&#45;&gt;cluster_MyManyDynamicElementVecFir_io_muxOut</title>
<path fill="none" stroke="#000000" d="M270,-168.9743C284.1798,-168.9743 299.4739,-168.9743 313.7808,-168.9743"/>
<polygon fill="#000000" stroke="#000000" points="313.9939,-172.4744 323.9939,-168.9743 313.9939,-165.4744 313.9939,-172.4744"/>
</g>
<!-- mux_168695935&#45;&gt;struct_cluster_MyManyDynamicElementVecFir_counter -->
<g id="edge9" class="edge">
<title>mux_168695935:out&#45;&gt;struct_cluster_MyManyDynamicElementVecFir_counter:in</title>
<path fill="none" stroke="#000000" d="M665,-56.9743C665,9.7498 92.6782,20.1451 39.0231,-39.6423"/>
<polygon fill="#000000" stroke="#000000" points="35.7448,-38.4057 35,-48.9743 42.1729,-41.1769 35.7448,-38.4057"/>
</g>
<!-- op_tail_15&#45;&gt;mux_168695935 -->
<g id="edge1" class="edge">
<title>op_tail_15:out&#45;&gt;mux_168695935:in1</title>
<path fill="none" stroke="#000000" d="M541.5,-121.9743C541.5,-115.9757 576.0433,-102.5129 594.1182,-97.1956"/>
<polygon fill="#000000" stroke="#000000" points="595.0111,-100.5823 604,-94.9743 593.4758,-93.7527 595.0111,-100.5823"/>
</g>
</g>
</svg>
