<?xml version="1.0" encoding="UTF-8" standalone="no"?>
<?xml-stylesheet href="styles.css" type="text/css"?>
<!DOCTYPE svg PUBLIC "-//W3C//DTD SVG 1.1//EN"
 "http://www.w3.org/Graphics/SVG/1.1/DTD/svg11.dtd">
<!-- Generated by graphviz version 2.40.1 (0)
 -->
<!-- Title: MyManyDynamicElementVecFir Pages: 1 -->
<svg width="708pt" height="261pt"
 viewBox="0.00 0.00 708.00 261.00" xmlns="http://www.w3.org/2000/svg" xmlns:xlink="http://www.w3.org/1999/xlink">
<g id="graph0" class="graph" transform="scale(1 1) rotate(0) translate(4 257)">
<title>MyManyDynamicElementVecFir</title>
<polygon fill="#ffffff" stroke="transparent" points="-4,4 -4,-257 704,-257 704,4 -4,4"/>
<g id="clust1" class="cluster">
<title>cluster_MyManyDynamicElementVecFir</title>
<polygon fill="#fff8dc" stroke="#000000" points="8,-8 8,-245 692,-245 692,-8 8,-8"/>
<text text-anchor="middle" x="350" y="-229.8" font-family="Times,serif" font-size="14.00" fill="#000000">MyManyDynamicElementVecFir</text>
</g>
<!-- cluster_MyManyDynamicElementVecFir_clock -->
<g id="node1" class="node">
<title>cluster_MyManyDynamicElementVecFir_clock</title>
<polygon fill="#cccccc" stroke="#000000" points="107.5,-214 52.5,-214 52.5,-178 107.5,-178 107.5,-214"/>
<text text-anchor="middle" x="80" y="-192.3" font-family="Times,serif" font-size="14.00" fill="#000000">clock</text>
</g>
<!-- cluster_MyManyDynamicElementVecFir_reset -->
<g id="node2" class="node">
<title>cluster_MyManyDynamicElementVecFir_reset</title>
<polygon fill="#cccccc" stroke="#000000" points="107,-160 53,-160 53,-124 107,-124 107,-160"/>
<text text-anchor="middle" x="80" y="-138.3" font-family="Times,serif" font-size="14.00" fill="#000000">reset</text>
</g>
<!-- cluster_MyManyDynamicElementVecFir_io_muxIn -->
<g id="node3" class="node">
<title>cluster_MyManyDynamicElementVecFir_io_muxIn</title>
<polygon fill="#cccccc" stroke="#000000" points="121.5,-106 38.5,-106 38.5,-70 121.5,-70 121.5,-106"/>
<text text-anchor="middle" x="80" y="-84.3" font-family="Times,serif" font-size="14.00" fill="#000000">io_muxIn</text>
</g>
<!-- mux_176333046 -->
<g id="node9" class="node">
<title>mux_176333046</title>
<polygon fill="#afeeee" stroke="transparent" points="198,-160 198,-210 270,-210 270,-160 198,-160"/>
<polygon fill="none" stroke="#000000" points="198,-185 198,-210 221,-210 221,-185 198,-185"/>
<text text-anchor="start" x="203" y="-193.8" font-family="Times,serif" font-size="14.00" fill="#000000">●</text>
<polygon fill="none" stroke="#000000" points="221,-160 221,-210 247,-210 247,-160 221,-160"/>
<text text-anchor="start" x="226" y="-181.3" font-family="Times,serif" font-size="14.00" fill="#000000">a?</text>
<polygon fill="none" stroke="#000000" points="247,-160 247,-210 270,-210 270,-160 247,-160"/>
<text text-anchor="start" x="252" y="-181.3" font-family="Times,serif" font-size="14.00" fill="#000000">●</text>
<polygon fill="none" stroke="#000000" points="198,-160 198,-185 221,-185 221,-160 198,-160"/>
<text text-anchor="start" x="204.5" y="-168.8" font-family="Times,serif" font-size="14.00" fill="#000000">0</text>
</g>
<!-- cluster_MyManyDynamicElementVecFir_io_muxIn&#45;&gt;mux_176333046 -->
<g id="edge1" class="edge">
<title>cluster_MyManyDynamicElementVecFir_io_muxIn&#45;&gt;mux_176333046:select</title>
<path fill="none" stroke="#000000" d="M121.6867,-103.8395C129.2709,-107.2086 136.9937,-110.9758 144,-115 161.3428,-124.9612 162.2844,-132.7179 180,-142 198.3821,-151.6313 222.9433,-140.5502 231.1765,-150.2215"/>
<polygon fill="#000000" stroke="#000000" points="227.8632,-151.3634 234,-160 234.5885,-149.4215 227.8632,-151.3634"/>
</g>
<!-- cluster_MyManyDynamicElementVecFir_io_init -->
<g id="node4" class="node">
<title>cluster_MyManyDynamicElementVecFir_io_init</title>
<polygon fill="#cccccc" stroke="#000000" points="538,-128 477,-128 477,-92 538,-92 538,-128"/>
<text text-anchor="middle" x="507.5" y="-106.3" font-family="Times,serif" font-size="14.00" fill="#000000">io_init</text>
</g>
<!-- mux_784471000 -->
<g id="node10" class="node">
<title>mux_784471000</title>
<polygon fill="#afeeee" stroke="transparent" points="604,-85 604,-135 676,-135 676,-85 604,-85"/>
<polygon fill="none" stroke="#000000" points="604,-110 604,-135 627,-135 627,-110 604,-110"/>
<text text-anchor="start" x="610.5" y="-118.8" font-family="Times,serif" font-size="14.00" fill="#000000">2</text>
<polygon fill="none" stroke="#000000" points="627,-85 627,-135 653,-135 653,-85 627,-85"/>
<text text-anchor="start" x="632" y="-106.3" font-family="Times,serif" font-size="14.00" fill="#000000">a?</text>
<polygon fill="none" stroke="#000000" points="653,-85 653,-135 676,-135 676,-85 653,-85"/>
<text text-anchor="start" x="658" y="-106.3" font-family="Times,serif" font-size="14.00" fill="#000000">●</text>
<polygon fill="none" stroke="#000000" points="604,-85 604,-110 627,-110 627,-85 604,-85"/>
<text text-anchor="start" x="609" y="-93.8" font-family="Times,serif" font-size="14.00" fill="#000000">●</text>
</g>
<!-- cluster_MyManyDynamicElementVecFir_io_init&#45;&gt;mux_784471000 -->
<g id="edge3" class="edge">
<title>cluster_MyManyDynamicElementVecFir_io_init&#45;&gt;mux_784471000:select</title>
<path fill="none" stroke="#000000" d="M538.2312,-98.1664C569.7282,-86.7196 616.4322,-71.8304 633.4745,-77.1847"/>
<polygon fill="#000000" stroke="#000000" points="630.9041,-79.5672 640,-85 636.2773,-75.0807 630.9041,-79.5672"/>
</g>
<!-- cluster_MyManyDynamicElementVecFir_io_muxOut -->
<g id="node5" class="node">
<title>cluster_MyManyDynamicElementVecFir_io_muxOut</title>
<polygon fill="#e0ffff" stroke="#000000" points="419,-203 324,-203 324,-167 419,-167 419,-203"/>
<text text-anchor="middle" x="371.5" y="-181.3" font-family="Times,serif" font-size="14.00" fill="#000000">io_muxOut</text>
</g>
<!-- struct_cluster_MyManyDynamicElementVecFir_counter -->
<g id="node6" class="node">
<title>struct_cluster_MyManyDynamicElementVecFir_counter</title>
<polygon fill="#ffe4b5" stroke="transparent" points="24,-21.5 24,-46.5 136,-46.5 136,-21.5 24,-21.5"/>
<polygon fill="none" stroke="#000000" points="24,-21 24,-46 47,-46 47,-21 24,-21"/>
<text text-anchor="start" x="29" y="-29.8" font-family="Times,serif" font-size="14.00" fill="#000000">●</text>
<polygon fill="none" stroke="#000000" points="47,-21 47,-46 113,-46 113,-21 47,-21"/>
<text text-anchor="start" x="52" y="-29.8" font-family="Times,serif" font-size="14.00" fill="#000000">counter</text>
<polygon fill="none" stroke="#000000" points="113,-21 113,-46 136,-46 136,-21 113,-21"/>
<text text-anchor="start" x="118" y="-29.8" font-family="Times,serif" font-size="14.00" fill="#000000">●</text>
</g>
<!-- op_add_16 -->
<g id="node8" class="node">
<title>op_add_16</title>
<polygon fill="#d8bfd8" stroke="transparent" points="188,-24 188,-74 280,-74 280,-24 188,-24"/>
<polygon fill="none" stroke="#000000" points="188,-49 188,-74 211,-74 211,-49 188,-49"/>
<text text-anchor="start" x="193" y="-57.8" font-family="Times,serif" font-size="14.00" fill="#000000">●</text>
<polygon fill="none" stroke="#000000" points="211,-24 211,-74 257,-74 257,-24 211,-24"/>
<text text-anchor="start" x="216" y="-45.3" font-family="Times,serif" font-size="14.00" fill="#000000"> add </text>
<polygon fill="none" stroke="#000000" points="257,-24 257,-74 280,-74 280,-24 257,-24"/>
<text text-anchor="start" x="262" y="-45.3" font-family="Times,serif" font-size="14.00" fill="#000000">●</text>
<polygon fill="none" stroke="#000000" points="188,-24 188,-49 211,-49 211,-24 188,-24"/>
<text text-anchor="start" x="194.5" y="-32.8" font-family="Times,serif" font-size="14.00" fill="#000000">1</text>
</g>
<!-- struct_cluster_MyManyDynamicElementVecFir_counter&#45;&gt;op_add_16 -->
<g id="edge7" class="edge">
<title>struct_cluster_MyManyDynamicElementVecFir_counter:out&#45;&gt;op_add_16:in1</title>
<path fill="none" stroke="#000000" d="M136,-33C158.5342,-33 161.2088,-54.0296 177.8472,-60.2728"/>
<polygon fill="#000000" stroke="#000000" points="177.5546,-63.7732 188,-62 178.7287,-56.8724 177.5546,-63.7732"/>
</g>
<!-- struct_cluster_MyManyDynamicElementVecFir_counter&#45;&gt;mux_176333046 -->
<g id="edge5" class="edge">
<title>struct_cluster_MyManyDynamicElementVecFir_counter:out&#45;&gt;mux_176333046:in1</title>
<path fill="none" stroke="#000000" d="M125,-46C125,-56.7589 137.5836,-52.3638 144,-61 180.8212,-110.5597 137.9832,-188.5342 187.9574,-197.2082"/>
<polygon fill="#000000" stroke="#000000" points="187.7558,-200.7031 198,-198 188.3061,-193.7248 187.7558,-200.7031"/>
</g>
<!-- cluster_MyManyDynamicElementVecFir__T -->
<g id="node7" class="node">
<title>cluster_MyManyDynamicElementVecFir__T</title>
<polygon fill="none" stroke="#000000" points="398.5,-70 344.5,-70 344.5,-34 398.5,-34 398.5,-70"/>
<text text-anchor="middle" x="371.5" y="-48.3" font-family="Times,serif" font-size="14.00" fill="#000000">_T</text>
</g>
<!-- op_tail_17 -->
<g id="node11" class="node">
<title>op_tail_17</title>
<polygon fill="#d8bfd8" stroke="transparent" points="463,-20 463,-70 552,-70 552,-20 463,-20"/>
<polygon fill="none" stroke="#000000" points="463.5,-45 463.5,-70 486.5,-70 486.5,-45 463.5,-45"/>
<text text-anchor="start" x="468.5" y="-53.8" font-family="Times,serif" font-size="14.00" fill="#000000">●</text>
<polygon fill="none" stroke="#000000" points="486.5,-20 486.5,-70 529.5,-70 529.5,-20 486.5,-20"/>
<text text-anchor="start" x="491.5" y="-41.3" font-family="Times,serif" font-size="14.00" fill="#000000"> tail </text>
<polygon fill="none" stroke="#000000" points="529.5,-20 529.5,-70 552.5,-70 552.5,-20 529.5,-20"/>
<text text-anchor="start" x="534.5" y="-41.3" font-family="Times,serif" font-size="14.00" fill="#000000">●</text>
<polygon fill="none" stroke="#000000" points="463.5,-20 463.5,-45 486.5,-45 486.5,-20 463.5,-20"/>
<text text-anchor="start" x="470" y="-28.8" font-family="Times,serif" font-size="14.00" fill="#000000">1</text>
</g>
<!-- cluster_MyManyDynamicElementVecFir__T&#45;&gt;op_tail_17 -->
<g id="edge9" class="edge">
<title>cluster_MyManyDynamicElementVecFir__T&#45;&gt;op_tail_17:in1</title>
<path fill="none" stroke="#000000" d="M398.8438,-54.7191C414.3419,-56.0648 434.3817,-57.4865 453.3861,-57.8885"/>
<polygon fill="#000000" stroke="#000000" points="453.462,-61.3894 463.5,-58 453.5392,-54.3898 453.462,-61.3894"/>
</g>
<!-- op_add_16&#45;&gt;cluster_MyManyDynamicElementVecFir__T -->
<g id="edge4" class="edge">
<title>op_add_16:out&#45;&gt;cluster_MyManyDynamicElementVecFir__T</title>
<path fill="none" stroke="#000000" d="M280,-49C297.7317,-49 317.3859,-49.5697 333.9194,-50.2126"/>
<polygon fill="#000000" stroke="#000000" points="334.1463,-53.7249 344.2822,-50.6404 334.4351,-46.7309 334.1463,-53.7249"/>
</g>
<!-- mux_176333046&#45;&gt;cluster_MyManyDynamicElementVecFir_io_muxOut -->
<g id="edge6" class="edge">
<title>mux_176333046:out&#45;&gt;cluster_MyManyDynamicElementVecFir_io_muxOut</title>
<path fill="none" stroke="#000000" d="M270,-185C284.1798,-185 299.4739,-185 313.7808,-185"/>
<polygon fill="#000000" stroke="#000000" points="313.9939,-188.5001 323.9939,-185 313.9939,-181.5001 313.9939,-188.5001"/>
</g>
<!-- mux_784471000&#45;&gt;struct_cluster_MyManyDynamicElementVecFir_counter -->
<g id="edge8" class="edge">
<title>mux_784471000:out&#45;&gt;struct_cluster_MyManyDynamicElementVecFir_counter:in</title>
<path fill="none" stroke="#000000" d="M665,-135C665,-181.6751 606.673,-136.5555 560,-137 513.3354,-137.4444 501.4781,-141.1909 455,-137 331.276,-125.8438 294.2902,-135.6811 180,-87 161.842,-79.2657 162.3204,-68.3412 144,-61 124.7615,-53.2909 59.8195,-65.4415 40.4789,-54.4308"/>
<polygon fill="#000000" stroke="#000000" points="43.3839,-52.4777 35,-46 37.5145,-56.2922 43.3839,-52.4777"/>
</g>
<!-- op_tail_17&#45;&gt;mux_784471000 -->
<g id="edge2" class="edge">
<title>op_tail_17:out&#45;&gt;mux_784471000:in2</title>
<path fill="none" stroke="#000000" d="M541.5,-70C541.5,-75.9986 576.0433,-89.4614 594.1182,-94.7787"/>
<polygon fill="#000000" stroke="#000000" points="593.4758,-98.2216 604,-97 595.0111,-91.392 593.4758,-98.2216"/>
</g>
</g>
</svg>
