<?xml version="1.0" encoding="UTF-8" standalone="no"?>
<?xml-stylesheet href="styles.css" type="text/css"?>
<!DOCTYPE svg PUBLIC "-//W3C//DTD SVG 1.1//EN"
 "http://www.w3.org/Graphics/SVG/1.1/DTD/svg11.dtd">
<!-- Generated by graphviz version 2.40.1 (0)
 -->
<!-- Title: ShiftRegister Pages: 1 -->
<svg width="663pt" height="207pt"
 viewBox="0.00 0.00 663.00 207.00" xmlns="http://www.w3.org/2000/svg" xmlns:xlink="http://www.w3.org/1999/xlink">
<g id="graph0" class="graph" transform="scale(1 1) rotate(0) translate(4 203)">
<title>ShiftRegister</title>
<polygon fill="#ffffff" stroke="transparent" points="-4,4 -4,-203 659,-203 659,4 -4,4"/>
<g id="clust1" class="cluster">
<title>cluster_ShiftRegister</title>
<polygon fill="#fff8dc" stroke="#000000" points="8,-8 8,-191 647,-191 647,-8 8,-8"/>
<text text-anchor="middle" x="327.5" y="-175.8" font-family="Times,serif" font-size="14.00" fill="#000000">ShiftRegister</text>
</g>
<!-- cluster_ShiftRegister_clock -->
<g id="node1" class="node">
<title>cluster_ShiftRegister_clock</title>
<polygon fill="#cccccc" stroke="#000000" points="71,-160 16,-160 16,-124 71,-124 71,-160"/>
<text text-anchor="middle" x="43.5" y="-138.3" font-family="Times,serif" font-size="14.00" fill="#000000">clock</text>
</g>
<!-- cluster_ShiftRegister_reset -->
<g id="node2" class="node">
<title>cluster_ShiftRegister_reset</title>
<polygon fill="#cccccc" stroke="#000000" points="70.5,-106 16.5,-106 16.5,-70 70.5,-70 70.5,-106"/>
<text text-anchor="middle" x="43.5" y="-84.3" font-family="Times,serif" font-size="14.00" fill="#000000">reset</text>
</g>
<!-- cluster_ShiftRegister_io_in -->
<g id="node3" class="node">
<title>cluster_ShiftRegister_io_in</title>
<polygon fill="#cccccc" stroke="#000000" points="70.5,-52 16.5,-52 16.5,-16 70.5,-16 70.5,-52"/>
<text text-anchor="middle" x="43.5" y="-30.3" font-family="Times,serif" font-size="14.00" fill="#000000">io_in</text>
</g>
<!-- cluster_ShiftRegister_io_out_0 -->
<g id="node4" class="node">
<title>cluster_ShiftRegister_io_out_0</title>
<polygon fill="#e0ffff" stroke="#000000" points="198,-52 121,-52 121,-16 198,-16 198,-52"/>
<text text-anchor="middle" x="159.5" y="-30.3" font-family="Times,serif" font-size="14.00" fill="#000000">io_out_0</text>
</g>
<!-- cluster_ShiftRegister_io_in&#45;&gt;cluster_ShiftRegister_io_out_0 -->
<g id="edge3" class="edge">
<title>cluster_ShiftRegister_io_in&#45;&gt;cluster_ShiftRegister_io_out_0</title>
<path fill="none" stroke="#000000" d="M70.6968,-34C82.5434,-34 96.8052,-34 110.3989,-34"/>
<polygon fill="#000000" stroke="#000000" points="110.6128,-37.5001 120.6128,-34 110.6128,-30.5001 110.6128,-37.5001"/>
</g>
<!-- struct_cluster_ShiftRegister_REG -->
<g id="node8" class="node">
<title>struct_cluster_ShiftRegister_REG</title>
<polygon fill="#ffe4b5" stroke="transparent" points="115,-75.5 115,-100.5 204,-100.5 204,-75.5 115,-75.5"/>
<polygon fill="none" stroke="#000000" points="115.5,-75 115.5,-100 138.5,-100 138.5,-75 115.5,-75"/>
<text text-anchor="start" x="120.5" y="-83.8" font-family="Times,serif" font-size="14.00" fill="#000000">●</text>
<polygon fill="none" stroke="#000000" points="138.5,-75 138.5,-100 181.5,-100 181.5,-75 138.5,-75"/>
<text text-anchor="start" x="143.5" y="-83.8" font-family="Times,serif" font-size="14.00" fill="#000000">REG</text>
<polygon fill="none" stroke="#000000" points="181.5,-75 181.5,-100 204.5,-100 204.5,-75 181.5,-75"/>
<text text-anchor="start" x="186.5" y="-83.8" font-family="Times,serif" font-size="14.00" fill="#000000">●</text>
</g>
<!-- cluster_ShiftRegister_io_in&#45;&gt;struct_cluster_ShiftRegister_REG -->
<g id="edge2" class="edge">
<title>cluster_ShiftRegister_io_in&#45;&gt;struct_cluster_ShiftRegister_REG:in</title>
<path fill="none" stroke="#000000" d="M62.6611,-52.2396C75.7728,-64.0972 93.015,-78.4064 105.7204,-84.2817"/>
<polygon fill="#000000" stroke="#000000" points="104.9279,-87.694 115.5,-87 106.8026,-80.9497 104.9279,-87.694"/>
</g>
<!-- cluster_ShiftRegister_io_out_1 -->
<g id="node5" class="node">
<title>cluster_ShiftRegister_io_out_1</title>
<polygon fill="#e0ffff" stroke="#000000" points="347,-52 270,-52 270,-16 347,-16 347,-52"/>
<text text-anchor="middle" x="308.5" y="-30.3" font-family="Times,serif" font-size="14.00" fill="#000000">io_out_1</text>
</g>
<!-- cluster_ShiftRegister_io_out_2 -->
<g id="node6" class="node">
<title>cluster_ShiftRegister_io_out_2</title>
<polygon fill="#e0ffff" stroke="#000000" points="504,-78 427,-78 427,-42 504,-42 504,-78"/>
<text text-anchor="middle" x="465.5" y="-56.3" font-family="Times,serif" font-size="14.00" fill="#000000">io_out_2</text>
</g>
<!-- cluster_ShiftRegister_io_out_3 -->
<g id="node7" class="node">
<title>cluster_ShiftRegister_io_out_3</title>
<polygon fill="#e0ffff" stroke="#000000" points="639,-131 562,-131 562,-95 639,-95 639,-131"/>
<text text-anchor="middle" x="600.5" y="-109.3" font-family="Times,serif" font-size="14.00" fill="#000000">io_out_3</text>
</g>
<!-- struct_cluster_ShiftRegister_REG&#45;&gt;cluster_ShiftRegister_io_out_1 -->
<g id="edge6" class="edge">
<title>struct_cluster_ShiftRegister_REG:out&#45;&gt;cluster_ShiftRegister_io_out_1</title>
<path fill="none" stroke="#000000" d="M204.5,-87C227.0235,-87 228.0139,-71.3857 248,-61 252.0123,-58.915 256.2191,-56.8337 260.4659,-54.804"/>
<polygon fill="#000000" stroke="#000000" points="262.1863,-57.8635 269.767,-50.462 259.2252,-51.5206 262.1863,-57.8635"/>
</g>
<!-- struct_cluster_ShiftRegister_REG_1 -->
<g id="node9" class="node">
<title>struct_cluster_ShiftRegister_REG_1</title>
<polygon fill="#ffe4b5" stroke="transparent" points="256,-75.5 256,-100.5 361,-100.5 361,-75.5 256,-75.5"/>
<polygon fill="none" stroke="#000000" points="256.5,-75 256.5,-100 279.5,-100 279.5,-75 256.5,-75"/>
<text text-anchor="start" x="261.5" y="-83.8" font-family="Times,serif" font-size="14.00" fill="#000000">●</text>
<polygon fill="none" stroke="#000000" points="279.5,-75 279.5,-100 338.5,-100 338.5,-75 279.5,-75"/>
<text text-anchor="start" x="284.5" y="-83.8" font-family="Times,serif" font-size="14.00" fill="#000000">REG_1</text>
<polygon fill="none" stroke="#000000" points="338.5,-75 338.5,-100 361.5,-100 361.5,-75 338.5,-75"/>
<text text-anchor="start" x="343.5" y="-83.8" font-family="Times,serif" font-size="14.00" fill="#000000">●</text>
</g>
<!-- struct_cluster_ShiftRegister_REG&#45;&gt;struct_cluster_ShiftRegister_REG_1 -->
<g id="edge4" class="edge">
<title>struct_cluster_ShiftRegister_REG:out&#45;&gt;struct_cluster_ShiftRegister_REG_1:in</title>
<path fill="none" stroke="#000000" d="M204.5,-87C223.8194,-87 231.0265,-87 246.3716,-87"/>
<polygon fill="#000000" stroke="#000000" points="246.5,-90.5001 256.5,-87 246.5,-83.5001 246.5,-90.5001"/>
</g>
<!-- struct_cluster_ShiftRegister_REG_1&#45;&gt;cluster_ShiftRegister_io_out_2 -->
<g id="edge5" class="edge">
<title>struct_cluster_ShiftRegister_REG_1:out&#45;&gt;cluster_ShiftRegister_io_out_2</title>
<path fill="none" stroke="#000000" d="M361.5,-87C379.9005,-87 399.5617,-82.9914 416.7801,-78.0633"/>
<polygon fill="#000000" stroke="#000000" points="418.0563,-81.3336 426.6078,-75.0788 416.0222,-74.6357 418.0563,-81.3336"/>
</g>
<!-- struct_cluster_ShiftRegister_REG_2 -->
<g id="node10" class="node">
<title>struct_cluster_ShiftRegister_REG_2</title>
<polygon fill="#ffe4b5" stroke="transparent" points="413,-101.5 413,-126.5 518,-126.5 518,-101.5 413,-101.5"/>
<polygon fill="none" stroke="#000000" points="413.5,-101 413.5,-126 436.5,-126 436.5,-101 413.5,-101"/>
<text text-anchor="start" x="418.5" y="-109.8" font-family="Times,serif" font-size="14.00" fill="#000000">●</text>
<polygon fill="none" stroke="#000000" points="436.5,-101 436.5,-126 495.5,-126 495.5,-101 436.5,-101"/>
<text text-anchor="start" x="441.5" y="-109.8" font-family="Times,serif" font-size="14.00" fill="#000000">REG_2</text>
<polygon fill="none" stroke="#000000" points="495.5,-101 495.5,-126 518.5,-126 518.5,-101 495.5,-101"/>
<text text-anchor="start" x="500.5" y="-109.8" font-family="Times,serif" font-size="14.00" fill="#000000">●</text>
</g>
<!-- struct_cluster_ShiftRegister_REG_1&#45;&gt;struct_cluster_ShiftRegister_REG_2 -->
<g id="edge7" class="edge">
<title>struct_cluster_ShiftRegister_REG_1:out&#45;&gt;struct_cluster_ShiftRegister_REG_2:in</title>
<path fill="none" stroke="#000000" d="M361.5,-87C383.5035,-87 387.0032,-105.8541 403.5134,-111.4514"/>
<polygon fill="#000000" stroke="#000000" points="403.0818,-114.9263 413.5,-113 404.1544,-108.0089 403.0818,-114.9263"/>
</g>
<!-- struct_cluster_ShiftRegister_REG_2&#45;&gt;cluster_ShiftRegister_io_out_3 -->
<g id="edge1" class="edge">
<title>struct_cluster_ShiftRegister_REG_2:out&#45;&gt;cluster_ShiftRegister_io_out_3</title>
<path fill="none" stroke="#000000" d="M518.5,-113C529.1804,-113 540.6433,-113 551.5128,-113"/>
<polygon fill="#000000" stroke="#000000" points="551.7074,-116.5001 561.7074,-113 551.7073,-109.5001 551.7074,-116.5001"/>
</g>
</g>
</svg>
