<?xml version="1.0" encoding="UTF-8" standalone="no"?>
<?xml-stylesheet href="styles.css" type="text/css"?>
<!DOCTYPE svg PUBLIC "-//W3C//DTD SVG 1.1//EN"
 "http://www.w3.org/Graphics/SVG/1.1/DTD/svg11.dtd">
<!-- Generated by graphviz version 2.40.1 (0)
 -->
<!-- Title: MyManyDynamicElementVecFir Pages: 1 -->
<svg width="1962pt" height="417pt"
 viewBox="0.00 0.00 1962.00 417.15" xmlns="http://www.w3.org/2000/svg" xmlns:xlink="http://www.w3.org/1999/xlink">
<g id="graph0" class="graph" transform="scale(1 1) rotate(0) translate(4 413.1454)">
<title>MyManyDynamicElementVecFir</title>
<polygon fill="#ffffff" stroke="transparent" points="-4,4 -4,-413.1454 1958,-413.1454 1958,4 -4,4"/>
<g id="clust1" class="cluster">
<title>cluster_MyManyDynamicElementVecFir</title>
<polygon fill="#fff8dc" stroke="#000000" points="8,-18.1454 8,-401.1454 1946,-401.1454 1946,-18.1454 8,-18.1454"/>
<text text-anchor="middle" x="977" y="-385.9454" font-family="Times,serif" font-size="14.00" fill="#000000">MyManyDynamicElementVecFir</text>
</g>
<!-- cluster_MyManyDynamicElementVecFir_clock -->
<g id="node1" class="node">
<title>cluster_MyManyDynamicElementVecFir_clock</title>
<polygon fill="#cccccc" stroke="#000000" points="71,-244.1454 16,-244.1454 16,-208.1454 71,-208.1454 71,-244.1454"/>
<text text-anchor="middle" x="43.5" y="-222.4454" font-family="Times,serif" font-size="14.00" fill="#000000">clock</text>
</g>
<!-- cluster_MyManyDynamicElementVecFir_reset -->
<g id="node2" class="node">
<title>cluster_MyManyDynamicElementVecFir_reset</title>
<polygon fill="#cccccc" stroke="#000000" points="70.5,-65.1454 16.5,-65.1454 16.5,-29.1454 70.5,-29.1454 70.5,-65.1454"/>
<text text-anchor="middle" x="43.5" y="-43.4454" font-family="Times,serif" font-size="14.00" fill="#000000">reset</text>
</g>
<!-- mux_1868417466 -->
<g id="node25" class="node">
<title>mux_1868417466</title>
<polygon fill="#afeeee" stroke="transparent" points="115,-135.1454 115,-185.1454 187,-185.1454 187,-135.1454 115,-135.1454"/>
<polygon fill="none" stroke="#000000" points="115,-160.1454 115,-185.1454 138,-185.1454 138,-160.1454 115,-160.1454"/>
<text text-anchor="start" x="121.5" y="-168.9454" font-family="Times,serif" font-size="14.00" fill="#000000">0</text>
<polygon fill="none" stroke="#000000" points="138,-135.1454 138,-185.1454 164,-185.1454 164,-135.1454 138,-135.1454"/>
<text text-anchor="start" x="143" y="-156.4454" font-family="Times,serif" font-size="14.00" fill="#000000">a?</text>
<polygon fill="none" stroke="#000000" points="164,-135.1454 164,-185.1454 187,-185.1454 187,-135.1454 164,-135.1454"/>
<text text-anchor="start" x="169" y="-156.4454" font-family="Times,serif" font-size="14.00" fill="#000000">●</text>
<polygon fill="none" stroke="#000000" points="115,-135.1454 115,-160.1454 138,-160.1454 138,-135.1454 115,-135.1454"/>
<text text-anchor="start" x="120" y="-143.9454" font-family="Times,serif" font-size="14.00" fill="#000000">●</text>
</g>
<!-- cluster_MyManyDynamicElementVecFir_reset&#45;&gt;mux_1868417466 -->
<g id="edge19" class="edge">
<title>cluster_MyManyDynamicElementVecFir_reset&#45;&gt;mux_1868417466:select</title>
<path fill="none" stroke="#000000" d="M70.6268,-55.952C99.736,-67.1442 142.7826,-89.3817 149.9662,-124.8033"/>
<polygon fill="#000000" stroke="#000000" points="146.5226,-125.5431 151,-135.1454 153.4879,-124.8468 146.5226,-125.5431"/>
</g>
<!-- mux_703200375 -->
<g id="node27" class="node">
<title>mux_703200375</title>
<polygon fill="#afeeee" stroke="transparent" points="550.5,-110.1454 550.5,-160.1454 622.5,-160.1454 622.5,-110.1454 550.5,-110.1454"/>
<polygon fill="none" stroke="#000000" points="550.5,-135.1454 550.5,-160.1454 573.5,-160.1454 573.5,-135.1454 550.5,-135.1454"/>
<text text-anchor="start" x="557" y="-143.9454" font-family="Times,serif" font-size="14.00" fill="#000000">0</text>
<polygon fill="none" stroke="#000000" points="573.5,-110.1454 573.5,-160.1454 599.5,-160.1454 599.5,-110.1454 573.5,-110.1454"/>
<text text-anchor="start" x="578.5" y="-131.4454" font-family="Times,serif" font-size="14.00" fill="#000000">a?</text>
<polygon fill="none" stroke="#000000" points="599.5,-110.1454 599.5,-160.1454 622.5,-160.1454 622.5,-110.1454 599.5,-110.1454"/>
<text text-anchor="start" x="604.5" y="-131.4454" font-family="Times,serif" font-size="14.00" fill="#000000">●</text>
<polygon fill="none" stroke="#000000" points="550.5,-110.1454 550.5,-135.1454 573.5,-135.1454 573.5,-110.1454 550.5,-110.1454"/>
<text text-anchor="start" x="555.5" y="-118.9454" font-family="Times,serif" font-size="14.00" fill="#000000">●</text>
</g>
<!-- cluster_MyManyDynamicElementVecFir_reset&#45;&gt;mux_703200375 -->
<g id="edge32" class="edge">
<title>cluster_MyManyDynamicElementVecFir_reset&#45;&gt;mux_703200375:select</title>
<path fill="none" stroke="#000000" d="M70.7996,-44.5093C177.2547,-34.9153 559.8921,-7.0914 585.1842,-100.1266"/>
<polygon fill="#000000" stroke="#000000" points="581.7276,-100.6863 586.5,-110.1454 588.668,-99.7748 581.7276,-100.6863"/>
</g>
<!-- mux_803137972 -->
<g id="node29" class="node">
<title>mux_803137972</title>
<polygon fill="#afeeee" stroke="transparent" points="996,-75.1454 996,-125.1454 1068,-125.1454 1068,-75.1454 996,-75.1454"/>
<polygon fill="none" stroke="#000000" points="996,-100.1454 996,-125.1454 1019,-125.1454 1019,-100.1454 996,-100.1454"/>
<text text-anchor="start" x="1002.5" y="-108.9454" font-family="Times,serif" font-size="14.00" fill="#000000">0</text>
<polygon fill="none" stroke="#000000" points="1019,-75.1454 1019,-125.1454 1045,-125.1454 1045,-75.1454 1019,-75.1454"/>
<text text-anchor="start" x="1024" y="-96.4454" font-family="Times,serif" font-size="14.00" fill="#000000">a?</text>
<polygon fill="none" stroke="#000000" points="1045,-75.1454 1045,-125.1454 1068,-125.1454 1068,-75.1454 1045,-75.1454"/>
<text text-anchor="start" x="1050" y="-96.4454" font-family="Times,serif" font-size="14.00" fill="#000000">●</text>
<polygon fill="none" stroke="#000000" points="996,-75.1454 996,-100.1454 1019,-100.1454 1019,-75.1454 996,-75.1454"/>
<text text-anchor="start" x="1001" y="-83.9454" font-family="Times,serif" font-size="14.00" fill="#000000">●</text>
</g>
<!-- cluster_MyManyDynamicElementVecFir_reset&#45;&gt;mux_803137972 -->
<g id="edge20" class="edge">
<title>cluster_MyManyDynamicElementVecFir_reset&#45;&gt;mux_803137972:select</title>
<path fill="none" stroke="#000000" d="M70.7786,-39.4078C81.9158,-36.5888 94.9809,-33.7114 107,-32.1454 188.1222,-21.5753 209.192,-27.1454 291,-27.1454 291,-27.1454 291,-27.1454 737,-27.1454 866.3329,-27.1454 1023.4687,53.2752 1031.6653,-65.0863"/>
<polygon fill="#000000" stroke="#000000" points="1028.1693,-65.2673 1032,-75.1454 1035.1654,-65.0345 1028.1693,-65.2673"/>
</g>
<!-- cluster_MyManyDynamicElementVecFir_io_in -->
<g id="node3" class="node">
<title>cluster_MyManyDynamicElementVecFir_io_in</title>
<polygon fill="#cccccc" stroke="#000000" points="318,-370.1454 264,-370.1454 264,-334.1454 318,-334.1454 318,-370.1454"/>
<text text-anchor="middle" x="291" y="-348.4454" font-family="Times,serif" font-size="14.00" fill="#000000">io_in</text>
</g>
<!-- op_mul_22 -->
<g id="node14" class="node">
<title>op_mul_22</title>
<polygon fill="#d8bfd8" stroke="transparent" points="395,-316.1454 395,-366.1454 488,-366.1454 488,-316.1454 395,-316.1454"/>
<polygon fill="none" stroke="#000000" points="395.5,-341.1454 395.5,-366.1454 418.5,-366.1454 418.5,-341.1454 395.5,-341.1454"/>
<text text-anchor="start" x="400.5" y="-349.9454" font-family="Times,serif" font-size="14.00" fill="#000000">●</text>
<polygon fill="none" stroke="#000000" points="418.5,-316.1454 418.5,-366.1454 465.5,-366.1454 465.5,-316.1454 418.5,-316.1454"/>
<text text-anchor="start" x="423.5" y="-337.4454" font-family="Times,serif" font-size="14.00" fill="#000000"> mul </text>
<polygon fill="none" stroke="#000000" points="465.5,-316.1454 465.5,-366.1454 488.5,-366.1454 488.5,-316.1454 465.5,-316.1454"/>
<text text-anchor="start" x="470.5" y="-337.4454" font-family="Times,serif" font-size="14.00" fill="#000000">●</text>
<polygon fill="none" stroke="#000000" points="395.5,-316.1454 395.5,-341.1454 418.5,-341.1454 418.5,-316.1454 395.5,-316.1454"/>
<text text-anchor="start" x="400.5" y="-324.9454" font-family="Times,serif" font-size="14.00" fill="#000000">●</text>
</g>
<!-- cluster_MyManyDynamicElementVecFir_io_in&#45;&gt;op_mul_22 -->
<g id="edge37" class="edge">
<title>cluster_MyManyDynamicElementVecFir_io_in&#45;&gt;op_mul_22:in1</title>
<path fill="none" stroke="#000000" d="M318.0622,-352.9473C336.521,-353.4342 361.8207,-353.9863 385.4836,-354.1167"/>
<polygon fill="#000000" stroke="#000000" points="385.49,-357.6167 395.5,-354.1454 385.5101,-350.6167 385.49,-357.6167"/>
</g>
<!-- mux_1853659045 -->
<g id="node26" class="node">
<title>mux_1853659045</title>
<polygon fill="#afeeee" stroke="transparent" points="405.5,-166.1454 405.5,-216.1454 477.5,-216.1454 477.5,-166.1454 405.5,-166.1454"/>
<polygon fill="none" stroke="#000000" points="405.5,-191.1454 405.5,-216.1454 428.5,-216.1454 428.5,-191.1454 405.5,-191.1454"/>
<text text-anchor="start" x="410.5" y="-199.9454" font-family="Times,serif" font-size="14.00" fill="#000000">●</text>
<polygon fill="none" stroke="#000000" points="428.5,-166.1454 428.5,-216.1454 454.5,-216.1454 454.5,-166.1454 428.5,-166.1454"/>
<text text-anchor="start" x="433.5" y="-187.4454" font-family="Times,serif" font-size="14.00" fill="#000000">a?</text>
<polygon fill="none" stroke="#000000" points="454.5,-166.1454 454.5,-216.1454 477.5,-216.1454 477.5,-166.1454 454.5,-166.1454"/>
<text text-anchor="start" x="459.5" y="-187.4454" font-family="Times,serif" font-size="14.00" fill="#000000">●</text>
<polygon fill="none" stroke="#000000" points="405.5,-166.1454 405.5,-191.1454 428.5,-191.1454 428.5,-166.1454 405.5,-166.1454"/>
<text text-anchor="start" x="410.5" y="-174.9454" font-family="Times,serif" font-size="14.00" fill="#000000">●</text>
</g>
<!-- cluster_MyManyDynamicElementVecFir_io_in&#45;&gt;mux_1853659045 -->
<g id="edge26" class="edge">
<title>cluster_MyManyDynamicElementVecFir_io_in&#45;&gt;mux_1853659045:in1</title>
<path fill="none" stroke="#000000" d="M318.2882,-344.985C329.6697,-340.8113 342.2481,-334.4769 351,-325.1454 382.1727,-291.9082 355.6983,-262.2611 387,-229.1454 393.1513,-222.6376 403.1369,-224.7832 409.7611,-223.8096"/>
<polygon fill="#000000" stroke="#000000" points="412.5252,-225.9664 416.5,-216.1454 407.2683,-221.3441 412.5252,-225.9664"/>
</g>
<!-- cluster_MyManyDynamicElementVecFir_io_valid -->
<g id="node4" class="node">
<title>cluster_MyManyDynamicElementVecFir_io_valid</title>
<polygon fill="#cccccc" stroke="#000000" points="326.5,-128.1454 255.5,-128.1454 255.5,-92.1454 326.5,-92.1454 326.5,-128.1454"/>
<text text-anchor="middle" x="291" y="-106.4454" font-family="Times,serif" font-size="14.00" fill="#000000">io_valid</text>
</g>
<!-- cluster_MyManyDynamicElementVecFir_io_valid&#45;&gt;mux_1853659045 -->
<g id="edge3" class="edge">
<title>cluster_MyManyDynamicElementVecFir_io_valid&#45;&gt;mux_1853659045:select</title>
<path fill="none" stroke="#000000" d="M326.8269,-128.1143C344.6064,-136.5329 366.5969,-146.2106 387,-153.1454 395.6572,-156.0879 420.9914,-155.0047 433.8393,-159.1529"/>
<polygon fill="#000000" stroke="#000000" points="431.7546,-161.9888 441.5,-166.1454 436.4737,-156.8187 431.7546,-161.9888"/>
</g>
<!-- mux_1815213218 -->
<g id="node28" class="node">
<title>mux_1815213218</title>
<polygon fill="#afeeee" stroke="transparent" points="405.5,-90.1454 405.5,-140.1454 477.5,-140.1454 477.5,-90.1454 405.5,-90.1454"/>
<polygon fill="none" stroke="#000000" points="405.5,-115.1454 405.5,-140.1454 428.5,-140.1454 428.5,-115.1454 405.5,-115.1454"/>
<text text-anchor="start" x="410.5" y="-123.9454" font-family="Times,serif" font-size="14.00" fill="#000000">●</text>
<polygon fill="none" stroke="#000000" points="428.5,-90.1454 428.5,-140.1454 454.5,-140.1454 454.5,-90.1454 428.5,-90.1454"/>
<text text-anchor="start" x="433.5" y="-111.4454" font-family="Times,serif" font-size="14.00" fill="#000000">a?</text>
<polygon fill="none" stroke="#000000" points="454.5,-90.1454 454.5,-140.1454 477.5,-140.1454 477.5,-90.1454 454.5,-90.1454"/>
<text text-anchor="start" x="459.5" y="-111.4454" font-family="Times,serif" font-size="14.00" fill="#000000">●</text>
<polygon fill="none" stroke="#000000" points="405.5,-90.1454 405.5,-115.1454 428.5,-115.1454 428.5,-90.1454 405.5,-90.1454"/>
<text text-anchor="start" x="410.5" y="-98.9454" font-family="Times,serif" font-size="14.00" fill="#000000">●</text>
</g>
<!-- cluster_MyManyDynamicElementVecFir_io_valid&#45;&gt;mux_1815213218 -->
<g id="edge4" class="edge">
<title>cluster_MyManyDynamicElementVecFir_io_valid&#45;&gt;mux_1815213218:select</title>
<path fill="none" stroke="#000000" d="M326.6664,-98.4788C363.522,-87.231 418.0874,-73.0807 435.7555,-81.647"/>
<polygon fill="#000000" stroke="#000000" points="433.0001,-83.8206 441.5,-90.1454 438.7995,-79.9005 433.0001,-83.8206"/>
</g>
<!-- mux_133522559 -->
<g id="node30" class="node">
<title>mux_133522559</title>
<polygon fill="#afeeee" stroke="transparent" points="851.5,-56.1454 851.5,-106.1454 923.5,-106.1454 923.5,-56.1454 851.5,-56.1454"/>
<polygon fill="none" stroke="#000000" points="851.5,-81.1454 851.5,-106.1454 874.5,-106.1454 874.5,-81.1454 851.5,-81.1454"/>
<text text-anchor="start" x="856.5" y="-89.9454" font-family="Times,serif" font-size="14.00" fill="#000000">●</text>
<polygon fill="none" stroke="#000000" points="874.5,-56.1454 874.5,-106.1454 900.5,-106.1454 900.5,-56.1454 874.5,-56.1454"/>
<text text-anchor="start" x="879.5" y="-77.4454" font-family="Times,serif" font-size="14.00" fill="#000000">a?</text>
<polygon fill="none" stroke="#000000" points="900.5,-56.1454 900.5,-106.1454 923.5,-106.1454 923.5,-56.1454 900.5,-56.1454"/>
<text text-anchor="start" x="905.5" y="-77.4454" font-family="Times,serif" font-size="14.00" fill="#000000">●</text>
<polygon fill="none" stroke="#000000" points="851.5,-56.1454 851.5,-81.1454 874.5,-81.1454 874.5,-56.1454 851.5,-56.1454"/>
<text text-anchor="start" x="856.5" y="-64.9454" font-family="Times,serif" font-size="14.00" fill="#000000">●</text>
</g>
<!-- cluster_MyManyDynamicElementVecFir_io_valid&#45;&gt;mux_133522559 -->
<g id="edge10" class="edge">
<title>cluster_MyManyDynamicElementVecFir_io_valid&#45;&gt;mux_133522559:select</title>
<path fill="none" stroke="#000000" d="M326.8054,-95.1135C344.5799,-88.3588 366.5723,-81.043 387,-77.1454 438.2566,-67.3657 833.2997,-8.5459 882.4798,-47.0941"/>
<polygon fill="#000000" stroke="#000000" points="879.5889,-49.098 887.5,-56.1454 885.7104,-45.7028 879.5889,-49.098"/>
</g>
<!-- cluster_MyManyDynamicElementVecFir_io_consts_0 -->
<g id="node5" class="node">
<title>cluster_MyManyDynamicElementVecFir_io_consts_0</title>
<polygon fill="#cccccc" stroke="#000000" points="341,-316.1454 241,-316.1454 241,-280.1454 341,-280.1454 341,-316.1454"/>
<text text-anchor="middle" x="291" y="-294.4454" font-family="Times,serif" font-size="14.00" fill="#000000">io_consts_0</text>
</g>
<!-- cluster_MyManyDynamicElementVecFir_io_consts_0&#45;&gt;op_mul_22 -->
<g id="edge28" class="edge">
<title>cluster_MyManyDynamicElementVecFir_io_consts_0&#45;&gt;op_mul_22:in2</title>
<path fill="none" stroke="#000000" d="M333.686,-316.2024C349.2642,-321.5136 367.418,-326.2908 385.1389,-327.7154"/>
<polygon fill="#000000" stroke="#000000" points="385.3634,-331.2276 395.5,-328.1454 385.6538,-324.2336 385.3634,-331.2276"/>
</g>
<!-- cluster_MyManyDynamicElementVecFir_io_consts_1 -->
<g id="node6" class="node">
<title>cluster_MyManyDynamicElementVecFir_io_consts_1</title>
<polygon fill="#cccccc" stroke="#000000" points="491.5,-274.1454 391.5,-274.1454 391.5,-238.1454 491.5,-238.1454 491.5,-274.1454"/>
<text text-anchor="middle" x="441.5" y="-252.4454" font-family="Times,serif" font-size="14.00" fill="#000000">io_consts_1</text>
</g>
<!-- op_mul_30 -->
<g id="node22" class="node">
<title>op_mul_30</title>
<polygon fill="#d8bfd8" stroke="transparent" points="540,-246.1454 540,-296.1454 633,-296.1454 633,-246.1454 540,-246.1454"/>
<polygon fill="none" stroke="#000000" points="540.5,-271.1454 540.5,-296.1454 563.5,-296.1454 563.5,-271.1454 540.5,-271.1454"/>
<text text-anchor="start" x="545.5" y="-279.9454" font-family="Times,serif" font-size="14.00" fill="#000000">●</text>
<polygon fill="none" stroke="#000000" points="563.5,-246.1454 563.5,-296.1454 610.5,-296.1454 610.5,-246.1454 563.5,-246.1454"/>
<text text-anchor="start" x="568.5" y="-267.4454" font-family="Times,serif" font-size="14.00" fill="#000000"> mul </text>
<polygon fill="none" stroke="#000000" points="610.5,-246.1454 610.5,-296.1454 633.5,-296.1454 633.5,-246.1454 610.5,-246.1454"/>
<text text-anchor="start" x="615.5" y="-267.4454" font-family="Times,serif" font-size="14.00" fill="#000000">●</text>
<polygon fill="none" stroke="#000000" points="540.5,-246.1454 540.5,-271.1454 563.5,-271.1454 563.5,-246.1454 540.5,-246.1454"/>
<text text-anchor="start" x="545.5" y="-254.9454" font-family="Times,serif" font-size="14.00" fill="#000000">●</text>
</g>
<!-- cluster_MyManyDynamicElementVecFir_io_consts_1&#45;&gt;op_mul_30 -->
<g id="edge5" class="edge">
<title>cluster_MyManyDynamicElementVecFir_io_consts_1&#45;&gt;op_mul_30:in2</title>
<path fill="none" stroke="#000000" d="M491.6058,-257.5507C503.9602,-257.8139 517.3596,-258.032 530.275,-258.1123"/>
<polygon fill="#000000" stroke="#000000" points="530.4887,-261.6129 540.5,-258.1454 530.5114,-254.613 530.4887,-261.6129"/>
</g>
<!-- cluster_MyManyDynamicElementVecFir_io_consts_2 -->
<g id="node7" class="node">
<title>cluster_MyManyDynamicElementVecFir_io_consts_2</title>
<polygon fill="#cccccc" stroke="#000000" points="787,-176.1454 687,-176.1454 687,-140.1454 787,-140.1454 787,-176.1454"/>
<text text-anchor="middle" x="737" y="-154.4454" font-family="Times,serif" font-size="14.00" fill="#000000">io_consts_2</text>
</g>
<!-- op_mul_31 -->
<g id="node23" class="node">
<title>op_mul_31</title>
<polygon fill="#d8bfd8" stroke="transparent" points="841,-145.1454 841,-195.1454 934,-195.1454 934,-145.1454 841,-145.1454"/>
<polygon fill="none" stroke="#000000" points="841.5,-170.1454 841.5,-195.1454 864.5,-195.1454 864.5,-170.1454 841.5,-170.1454"/>
<text text-anchor="start" x="846.5" y="-178.9454" font-family="Times,serif" font-size="14.00" fill="#000000">●</text>
<polygon fill="none" stroke="#000000" points="864.5,-145.1454 864.5,-195.1454 911.5,-195.1454 911.5,-145.1454 864.5,-145.1454"/>
<text text-anchor="start" x="869.5" y="-166.4454" font-family="Times,serif" font-size="14.00" fill="#000000"> mul </text>
<polygon fill="none" stroke="#000000" points="911.5,-145.1454 911.5,-195.1454 934.5,-195.1454 934.5,-145.1454 911.5,-145.1454"/>
<text text-anchor="start" x="916.5" y="-166.4454" font-family="Times,serif" font-size="14.00" fill="#000000">●</text>
<polygon fill="none" stroke="#000000" points="841.5,-145.1454 841.5,-170.1454 864.5,-170.1454 864.5,-145.1454 841.5,-145.1454"/>
<text text-anchor="start" x="846.5" y="-153.9454" font-family="Times,serif" font-size="14.00" fill="#000000">●</text>
</g>
<!-- cluster_MyManyDynamicElementVecFir_io_consts_2&#45;&gt;op_mul_31 -->
<g id="edge22" class="edge">
<title>cluster_MyManyDynamicElementVecFir_io_consts_2&#45;&gt;op_mul_31:in2</title>
<path fill="none" stroke="#000000" d="M787.2287,-157.4701C801.2106,-157.3241 816.6215,-157.201 831.3974,-157.16"/>
<polygon fill="#000000" stroke="#000000" points="831.5051,-160.6599 841.5,-157.1454 831.4949,-153.6599 831.5051,-160.6599"/>
</g>
<!-- cluster_MyManyDynamicElementVecFir_io_consts_3 -->
<g id="node8" class="node">
<title>cluster_MyManyDynamicElementVecFir_io_consts_3</title>
<polygon fill="#cccccc" stroke="#000000" points="1232,-65.1454 1132,-65.1454 1132,-29.1454 1232,-29.1454 1232,-65.1454"/>
<text text-anchor="middle" x="1182" y="-43.4454" font-family="Times,serif" font-size="14.00" fill="#000000">io_consts_3</text>
</g>
<!-- op_mul_32 -->
<g id="node24" class="node">
<title>op_mul_32</title>
<polygon fill="#d8bfd8" stroke="transparent" points="1286,-62.1454 1286,-112.1454 1379,-112.1454 1379,-62.1454 1286,-62.1454"/>
<polygon fill="none" stroke="#000000" points="1286.5,-87.1454 1286.5,-112.1454 1309.5,-112.1454 1309.5,-87.1454 1286.5,-87.1454"/>
<text text-anchor="start" x="1291.5" y="-95.9454" font-family="Times,serif" font-size="14.00" fill="#000000">●</text>
<polygon fill="none" stroke="#000000" points="1309.5,-62.1454 1309.5,-112.1454 1356.5,-112.1454 1356.5,-62.1454 1309.5,-62.1454"/>
<text text-anchor="start" x="1314.5" y="-83.4454" font-family="Times,serif" font-size="14.00" fill="#000000"> mul </text>
<polygon fill="none" stroke="#000000" points="1356.5,-62.1454 1356.5,-112.1454 1379.5,-112.1454 1379.5,-62.1454 1356.5,-62.1454"/>
<text text-anchor="start" x="1361.5" y="-83.4454" font-family="Times,serif" font-size="14.00" fill="#000000">●</text>
<polygon fill="none" stroke="#000000" points="1286.5,-62.1454 1286.5,-87.1454 1309.5,-87.1454 1309.5,-62.1454 1286.5,-62.1454"/>
<text text-anchor="start" x="1291.5" y="-70.9454" font-family="Times,serif" font-size="14.00" fill="#000000">●</text>
</g>
<!-- cluster_MyManyDynamicElementVecFir_io_consts_3&#45;&gt;op_mul_32 -->
<g id="edge33" class="edge">
<title>cluster_MyManyDynamicElementVecFir_io_consts_3&#45;&gt;op_mul_32:in2</title>
<path fill="none" stroke="#000000" d="M1230.7714,-65.1548C1245.0012,-69.2176 1260.9027,-72.6647 1276.3978,-73.7724"/>
<polygon fill="#000000" stroke="#000000" points="1276.3776,-77.2739 1286.5,-74.1454 1276.636,-70.2787 1276.3776,-77.2739"/>
</g>
<!-- cluster_MyManyDynamicElementVecFir_io_out -->
<g id="node9" class="node">
<title>cluster_MyManyDynamicElementVecFir_io_out</title>
<polygon fill="#e0ffff" stroke="#000000" points="1938,-119.1454 1878,-119.1454 1878,-83.1454 1938,-83.1454 1938,-119.1454"/>
<text text-anchor="middle" x="1908" y="-97.4454" font-family="Times,serif" font-size="14.00" fill="#000000">io_out</text>
</g>
<!-- struct_cluster_MyManyDynamicElementVecFir_taps_1 -->
<g id="node10" class="node">
<title>struct_cluster_MyManyDynamicElementVecFir_taps_1</title>
<polygon fill="#ffe4b5" stroke="transparent" points="239,-171.6454 239,-196.6454 343,-196.6454 343,-171.6454 239,-171.6454"/>
<polygon fill="none" stroke="#000000" points="239,-171.1454 239,-196.1454 262,-196.1454 262,-171.1454 239,-171.1454"/>
<text text-anchor="start" x="244" y="-179.9454" font-family="Times,serif" font-size="14.00" fill="#000000">●</text>
<polygon fill="none" stroke="#000000" points="262,-171.1454 262,-196.1454 320,-196.1454 320,-171.1454 262,-171.1454"/>
<text text-anchor="start" x="267" y="-179.9454" font-family="Times,serif" font-size="14.00" fill="#000000">taps_1</text>
<polygon fill="none" stroke="#000000" points="320,-171.1454 320,-196.1454 343,-196.1454 343,-171.1454 320,-171.1454"/>
<text text-anchor="start" x="325" y="-179.9454" font-family="Times,serif" font-size="14.00" fill="#000000">●</text>
</g>
<!-- struct_cluster_MyManyDynamicElementVecFir_taps_1&#45;&gt;op_mul_30 -->
<g id="edge23" class="edge">
<title>struct_cluster_MyManyDynamicElementVecFir_taps_1:out&#45;&gt;op_mul_30:in1</title>
<path fill="none" stroke="#000000" d="M343,-183.1454C391.5564,-183.1454 346.4217,-256.4784 387,-283.1454 441.1188,-318.7109 469.3318,-287.6585 530.4067,-284.4131"/>
<polygon fill="#000000" stroke="#000000" points="530.5963,-287.9094 540.5,-284.1454 530.4107,-280.9118 530.5963,-287.9094"/>
</g>
<!-- struct_cluster_MyManyDynamicElementVecFir_taps_1&#45;&gt;mux_1853659045 -->
<g id="edge9" class="edge">
<title>struct_cluster_MyManyDynamicElementVecFir_taps_1:out&#45;&gt;mux_1853659045:in2</title>
<path fill="none" stroke="#000000" d="M343,-183.1454C367.1655,-183.1454 375.4638,-179.3853 395.4146,-178.3865"/>
<polygon fill="#000000" stroke="#000000" points="395.5866,-181.8835 405.5,-178.1454 395.4192,-174.8855 395.5866,-181.8835"/>
</g>
<!-- struct_cluster_MyManyDynamicElementVecFir_taps_1&#45;&gt;mux_1815213218 -->
<g id="edge21" class="edge">
<title>struct_cluster_MyManyDynamicElementVecFir_taps_1:out&#45;&gt;mux_1815213218:in1</title>
<path fill="none" stroke="#000000" d="M343,-183.1454C376.2438,-183.1454 370.3345,-138.7499 395.6254,-129.7321"/>
<polygon fill="#000000" stroke="#000000" points="396.182,-133.1877 405.5,-128.1454 395.0713,-126.2763 396.182,-133.1877"/>
</g>
<!-- struct_cluster_MyManyDynamicElementVecFir_taps_2 -->
<g id="node11" class="node">
<title>struct_cluster_MyManyDynamicElementVecFir_taps_2</title>
<polygon fill="#ffe4b5" stroke="transparent" points="685,-91.6454 685,-116.6454 789,-116.6454 789,-91.6454 685,-91.6454"/>
<polygon fill="none" stroke="#000000" points="685,-91.1454 685,-116.1454 708,-116.1454 708,-91.1454 685,-91.1454"/>
<text text-anchor="start" x="690" y="-99.9454" font-family="Times,serif" font-size="14.00" fill="#000000">●</text>
<polygon fill="none" stroke="#000000" points="708,-91.1454 708,-116.1454 766,-116.1454 766,-91.1454 708,-91.1454"/>
<text text-anchor="start" x="713" y="-99.9454" font-family="Times,serif" font-size="14.00" fill="#000000">taps_2</text>
<polygon fill="none" stroke="#000000" points="766,-91.1454 766,-116.1454 789,-116.1454 789,-91.1454 766,-91.1454"/>
<text text-anchor="start" x="771" y="-99.9454" font-family="Times,serif" font-size="14.00" fill="#000000">●</text>
</g>
<!-- struct_cluster_MyManyDynamicElementVecFir_taps_2&#45;&gt;op_mul_31 -->
<g id="edge34" class="edge">
<title>struct_cluster_MyManyDynamicElementVecFir_taps_2:out&#45;&gt;op_mul_31:in1</title>
<path fill="none" stroke="#000000" d="M789,-103.1454C827.5411,-103.1454 804.4162,-168.8485 831.395,-181.1678"/>
<polygon fill="#000000" stroke="#000000" points="831.0139,-184.6596 841.5,-183.1454 832.3584,-177.7899 831.0139,-184.6596"/>
</g>
<!-- struct_cluster_MyManyDynamicElementVecFir_taps_2&#45;&gt;mux_1815213218 -->
<g id="edge12" class="edge">
<title>struct_cluster_MyManyDynamicElementVecFir_taps_2:out&#45;&gt;mux_1815213218:in2</title>
<path fill="none" stroke="#000000" d="M778,-91.1454C778,-72.9448 481.104,-70.4172 425.436,-85.0512"/>
<polygon fill="#000000" stroke="#000000" points="423.4541,-82.1522 416.5,-90.1454 426.9209,-88.2334 423.4541,-82.1522"/>
</g>
<!-- struct_cluster_MyManyDynamicElementVecFir_taps_2&#45;&gt;mux_133522559 -->
<g id="edge14" class="edge">
<title>struct_cluster_MyManyDynamicElementVecFir_taps_2:out&#45;&gt;mux_133522559:in1</title>
<path fill="none" stroke="#000000" d="M789,-103.1454C813.337,-103.1454 821.3607,-96.3773 841.3644,-94.5795"/>
<polygon fill="#000000" stroke="#000000" points="841.659,-98.0702 851.5,-94.1454 841.3594,-91.0766 841.659,-98.0702"/>
</g>
<!-- struct_cluster_MyManyDynamicElementVecFir_taps_3 -->
<g id="node12" class="node">
<title>struct_cluster_MyManyDynamicElementVecFir_taps_3</title>
<polygon fill="#ffe4b5" stroke="transparent" points="1130,-88.6454 1130,-113.6454 1234,-113.6454 1234,-88.6454 1130,-88.6454"/>
<polygon fill="none" stroke="#000000" points="1130,-88.1454 1130,-113.1454 1153,-113.1454 1153,-88.1454 1130,-88.1454"/>
<text text-anchor="start" x="1135" y="-96.9454" font-family="Times,serif" font-size="14.00" fill="#000000">●</text>
<polygon fill="none" stroke="#000000" points="1153,-88.1454 1153,-113.1454 1211,-113.1454 1211,-88.1454 1153,-88.1454"/>
<text text-anchor="start" x="1158" y="-96.9454" font-family="Times,serif" font-size="14.00" fill="#000000">taps_3</text>
<polygon fill="none" stroke="#000000" points="1211,-88.1454 1211,-113.1454 1234,-113.1454 1234,-88.1454 1211,-88.1454"/>
<text text-anchor="start" x="1216" y="-96.9454" font-family="Times,serif" font-size="14.00" fill="#000000">●</text>
</g>
<!-- struct_cluster_MyManyDynamicElementVecFir_taps_3&#45;&gt;op_mul_32 -->
<g id="edge7" class="edge">
<title>struct_cluster_MyManyDynamicElementVecFir_taps_3:out&#45;&gt;op_mul_32:in1</title>
<path fill="none" stroke="#000000" d="M1234,-100.1454C1253.5052,-100.1454 1260.7816,-100.1454 1276.2742,-100.1454"/>
<polygon fill="#000000" stroke="#000000" points="1276.5,-103.6455 1286.5,-100.1454 1276.5,-96.6455 1276.5,-103.6455"/>
</g>
<!-- struct_cluster_MyManyDynamicElementVecFir_taps_3&#45;&gt;mux_133522559 -->
<g id="edge35" class="edge">
<title>struct_cluster_MyManyDynamicElementVecFir_taps_3:out&#45;&gt;mux_133522559:in2</title>
<path fill="none" stroke="#000000" d="M1223,-88.1454C1223,-65.4863 1144.0637,-79.3055 1122,-74.1454 1105.5777,-70.3046 1102.5921,-65.1695 1086,-62.1454 1018.3953,-49.8236 1000.2055,-57.479 931.5,-56.1454 905.3903,-55.6386 873.7127,-33.7567 864.8838,-46.2089"/>
<polygon fill="#000000" stroke="#000000" points="861.4294,-45.6048 862.5,-56.1454 868.2363,-47.2378 861.4294,-45.6048"/>
</g>
<!-- cluster_MyManyDynamicElementVecFir__T -->
<g id="node13" class="node">
<title>cluster_MyManyDynamicElementVecFir__T</title>
<polygon fill="none" stroke="#000000" points="613.5,-357.1454 559.5,-357.1454 559.5,-321.1454 613.5,-321.1454 613.5,-357.1454"/>
<text text-anchor="middle" x="586.5" y="-335.4454" font-family="Times,serif" font-size="14.00" fill="#000000">_T</text>
</g>
<!-- op_add_29 -->
<g id="node21" class="node">
<title>op_add_29</title>
<polygon fill="#d8bfd8" stroke="transparent" points="691,-259.1454 691,-309.1454 783,-309.1454 783,-259.1454 691,-259.1454"/>
<polygon fill="none" stroke="#000000" points="691,-284.1454 691,-309.1454 714,-309.1454 714,-284.1454 691,-284.1454"/>
<text text-anchor="start" x="696" y="-292.9454" font-family="Times,serif" font-size="14.00" fill="#000000">●</text>
<polygon fill="none" stroke="#000000" points="714,-259.1454 714,-309.1454 760,-309.1454 760,-259.1454 714,-259.1454"/>
<text text-anchor="start" x="719" y="-280.4454" font-family="Times,serif" font-size="14.00" fill="#000000"> add </text>
<polygon fill="none" stroke="#000000" points="760,-259.1454 760,-309.1454 783,-309.1454 783,-259.1454 760,-259.1454"/>
<text text-anchor="start" x="765" y="-280.4454" font-family="Times,serif" font-size="14.00" fill="#000000">●</text>
<polygon fill="none" stroke="#000000" points="691,-259.1454 691,-284.1454 714,-284.1454 714,-259.1454 691,-259.1454"/>
<text text-anchor="start" x="696" y="-267.9454" font-family="Times,serif" font-size="14.00" fill="#000000">●</text>
</g>
<!-- cluster_MyManyDynamicElementVecFir__T&#45;&gt;op_add_29 -->
<g id="edge29" class="edge">
<title>cluster_MyManyDynamicElementVecFir__T&#45;&gt;op_add_29:in1</title>
<path fill="none" stroke="#000000" d="M613.9263,-325.393C634.7959,-315.345 662.8959,-302.7738 680.847,-298.5805"/>
<polygon fill="#000000" stroke="#000000" points="681.5883,-302.0106 691,-297.1454 680.6085,-295.0795 681.5883,-302.0106"/>
</g>
<!-- op_mul_22&#45;&gt;cluster_MyManyDynamicElementVecFir__T -->
<g id="edge18" class="edge">
<title>op_mul_22:out&#45;&gt;cluster_MyManyDynamicElementVecFir__T</title>
<path fill="none" stroke="#000000" d="M488.5,-341.1454C508.558,-341.1454 530.9204,-340.7214 549.2132,-340.2639"/>
<polygon fill="#000000" stroke="#000000" points="549.5611,-343.756 559.4653,-339.9936 549.3765,-336.7585 549.5611,-343.756"/>
</g>
<!-- op_bits_23 -->
<g id="node15" class="node">
<title>op_bits_23</title>
<polygon fill="#d8bfd8" stroke="transparent" points="1716,-76.1454 1716,-126.1454 1834,-126.1454 1834,-76.1454 1716,-76.1454"/>
<polygon fill="none" stroke="#000000" points="1716,-101.1454 1716,-126.1454 1764,-126.1454 1764,-101.1454 1716,-101.1454"/>
<text text-anchor="start" x="1733.5" y="-109.9454" font-family="Times,serif" font-size="14.00" fill="#000000">●</text>
<polygon fill="none" stroke="#000000" points="1764,-76.1454 1764,-126.1454 1811,-126.1454 1811,-76.1454 1764,-76.1454"/>
<text text-anchor="start" x="1769" y="-97.4454" font-family="Times,serif" font-size="14.00" fill="#000000"> bits </text>
<polygon fill="none" stroke="#000000" points="1811,-76.1454 1811,-126.1454 1834,-126.1454 1834,-76.1454 1811,-76.1454"/>
<text text-anchor="start" x="1816" y="-97.4454" font-family="Times,serif" font-size="14.00" fill="#000000">●</text>
<polygon fill="none" stroke="#000000" points="1716,-76.1454 1716,-101.1454 1764,-101.1454 1764,-76.1454 1716,-76.1454"/>
<text text-anchor="start" x="1721" y="-84.9454" font-family="Times,serif" font-size="14.00" fill="#000000">(7, 0)</text>
</g>
<!-- op_bits_23&#45;&gt;cluster_MyManyDynamicElementVecFir_io_out -->
<g id="edge6" class="edge">
<title>op_bits_23:out&#45;&gt;cluster_MyManyDynamicElementVecFir_io_out</title>
<path fill="none" stroke="#000000" d="M1834,-101.1454C1844.9041,-101.1454 1856.712,-101.1454 1867.6257,-101.1454"/>
<polygon fill="#000000" stroke="#000000" points="1867.7569,-104.6455 1877.7568,-101.1454 1867.7568,-97.6455 1867.7569,-104.6455"/>
</g>
<!-- op_tail_24 -->
<g id="node16" class="node">
<title>op_tail_24</title>
<polygon fill="#d8bfd8" stroke="transparent" points="1575,-89.1454 1575,-139.1454 1664,-139.1454 1664,-89.1454 1575,-89.1454"/>
<polygon fill="none" stroke="#000000" points="1575.5,-114.1454 1575.5,-139.1454 1598.5,-139.1454 1598.5,-114.1454 1575.5,-114.1454"/>
<text text-anchor="start" x="1580.5" y="-122.9454" font-family="Times,serif" font-size="14.00" fill="#000000">●</text>
<polygon fill="none" stroke="#000000" points="1598.5,-89.1454 1598.5,-139.1454 1641.5,-139.1454 1641.5,-89.1454 1598.5,-89.1454"/>
<text text-anchor="start" x="1603.5" y="-110.4454" font-family="Times,serif" font-size="14.00" fill="#000000"> tail </text>
<polygon fill="none" stroke="#000000" points="1641.5,-89.1454 1641.5,-139.1454 1664.5,-139.1454 1664.5,-89.1454 1641.5,-89.1454"/>
<text text-anchor="start" x="1646.5" y="-110.4454" font-family="Times,serif" font-size="14.00" fill="#000000">●</text>
<polygon fill="none" stroke="#000000" points="1575.5,-89.1454 1575.5,-114.1454 1598.5,-114.1454 1598.5,-89.1454 1575.5,-89.1454"/>
<text text-anchor="start" x="1582" y="-97.9454" font-family="Times,serif" font-size="14.00" fill="#000000">1</text>
</g>
<!-- op_tail_24&#45;&gt;op_bits_23 -->
<g id="edge38" class="edge">
<title>op_tail_24:out&#45;&gt;op_bits_23:in1</title>
<path fill="none" stroke="#000000" d="M1664.5,-114.1454C1683.6337,-114.1454 1690.7714,-114.1454 1705.969,-114.1454"/>
<polygon fill="#000000" stroke="#000000" points="1706,-117.6455 1716,-114.1454 1706,-110.6455 1706,-117.6455"/>
</g>
<!-- op_add_25 -->
<g id="node17" class="node">
<title>op_add_25</title>
<polygon fill="#d8bfd8" stroke="transparent" points="1431,-102.1454 1431,-152.1454 1523,-152.1454 1523,-102.1454 1431,-102.1454"/>
<polygon fill="none" stroke="#000000" points="1431,-127.1454 1431,-152.1454 1454,-152.1454 1454,-127.1454 1431,-127.1454"/>
<text text-anchor="start" x="1436" y="-135.9454" font-family="Times,serif" font-size="14.00" fill="#000000">●</text>
<polygon fill="none" stroke="#000000" points="1454,-102.1454 1454,-152.1454 1500,-152.1454 1500,-102.1454 1454,-102.1454"/>
<text text-anchor="start" x="1459" y="-123.4454" font-family="Times,serif" font-size="14.00" fill="#000000"> add </text>
<polygon fill="none" stroke="#000000" points="1500,-102.1454 1500,-152.1454 1523,-152.1454 1523,-102.1454 1500,-102.1454"/>
<text text-anchor="start" x="1505" y="-123.4454" font-family="Times,serif" font-size="14.00" fill="#000000">●</text>
<polygon fill="none" stroke="#000000" points="1431,-102.1454 1431,-127.1454 1454,-127.1454 1454,-102.1454 1431,-102.1454"/>
<text text-anchor="start" x="1436" y="-110.9454" font-family="Times,serif" font-size="14.00" fill="#000000">●</text>
</g>
<!-- op_add_25&#45;&gt;op_tail_24 -->
<g id="edge15" class="edge">
<title>op_add_25:out&#45;&gt;op_tail_24:in1</title>
<path fill="none" stroke="#000000" d="M1523,-127.1454C1542.5052,-127.1454 1549.7816,-127.1454 1565.2742,-127.1454"/>
<polygon fill="#000000" stroke="#000000" points="1565.5,-130.6455 1575.5,-127.1454 1565.5,-123.6455 1565.5,-130.6455"/>
</g>
<!-- op_tail_26 -->
<g id="node18" class="node">
<title>op_tail_26</title>
<polygon fill="#d8bfd8" stroke="transparent" points="1288,-142.1454 1288,-192.1454 1377,-192.1454 1377,-142.1454 1288,-142.1454"/>
<polygon fill="none" stroke="#000000" points="1288.5,-167.1454 1288.5,-192.1454 1311.5,-192.1454 1311.5,-167.1454 1288.5,-167.1454"/>
<text text-anchor="start" x="1293.5" y="-175.9454" font-family="Times,serif" font-size="14.00" fill="#000000">●</text>
<polygon fill="none" stroke="#000000" points="1311.5,-142.1454 1311.5,-192.1454 1354.5,-192.1454 1354.5,-142.1454 1311.5,-142.1454"/>
<text text-anchor="start" x="1316.5" y="-163.4454" font-family="Times,serif" font-size="14.00" fill="#000000"> tail </text>
<polygon fill="none" stroke="#000000" points="1354.5,-142.1454 1354.5,-192.1454 1377.5,-192.1454 1377.5,-142.1454 1354.5,-142.1454"/>
<text text-anchor="start" x="1359.5" y="-163.4454" font-family="Times,serif" font-size="14.00" fill="#000000">●</text>
<polygon fill="none" stroke="#000000" points="1288.5,-142.1454 1288.5,-167.1454 1311.5,-167.1454 1311.5,-142.1454 1288.5,-142.1454"/>
<text text-anchor="start" x="1295" y="-150.9454" font-family="Times,serif" font-size="14.00" fill="#000000">1</text>
</g>
<!-- op_tail_26&#45;&gt;op_add_25 -->
<g id="edge24" class="edge">
<title>op_tail_26:out&#45;&gt;op_add_25:in1</title>
<path fill="none" stroke="#000000" d="M1377.5,-167.1454C1400.1807,-167.1454 1403.7153,-147.5661 1420.712,-141.7535"/>
<polygon fill="#000000" stroke="#000000" points="1421.6605,-145.1478 1431,-140.1454 1420.5794,-138.2318 1421.6605,-145.1478"/>
</g>
<!-- op_add_27 -->
<g id="node19" class="node">
<title>op_add_27</title>
<polygon fill="#d8bfd8" stroke="transparent" points="986,-158.1454 986,-208.1454 1078,-208.1454 1078,-158.1454 986,-158.1454"/>
<polygon fill="none" stroke="#000000" points="986,-183.1454 986,-208.1454 1009,-208.1454 1009,-183.1454 986,-183.1454"/>
<text text-anchor="start" x="991" y="-191.9454" font-family="Times,serif" font-size="14.00" fill="#000000">●</text>
<polygon fill="none" stroke="#000000" points="1009,-158.1454 1009,-208.1454 1055,-208.1454 1055,-158.1454 1009,-158.1454"/>
<text text-anchor="start" x="1014" y="-179.4454" font-family="Times,serif" font-size="14.00" fill="#000000"> add </text>
<polygon fill="none" stroke="#000000" points="1055,-158.1454 1055,-208.1454 1078,-208.1454 1078,-158.1454 1055,-158.1454"/>
<text text-anchor="start" x="1060" y="-179.4454" font-family="Times,serif" font-size="14.00" fill="#000000">●</text>
<polygon fill="none" stroke="#000000" points="986,-158.1454 986,-183.1454 1009,-183.1454 1009,-158.1454 986,-158.1454"/>
<text text-anchor="start" x="991" y="-166.9454" font-family="Times,serif" font-size="14.00" fill="#000000">●</text>
</g>
<!-- op_add_27&#45;&gt;op_tail_26 -->
<g id="edge30" class="edge">
<title>op_add_27:out&#45;&gt;op_tail_26:in1</title>
<path fill="none" stroke="#000000" d="M1078,-183.1454C1168.0929,-183.1454 1193.1038,-180.3639 1278.3664,-180.1575"/>
<polygon fill="#000000" stroke="#000000" points="1278.5042,-183.6574 1288.5,-180.1454 1278.4958,-176.6574 1278.5042,-183.6574"/>
</g>
<!-- op_tail_28 -->
<g id="node20" class="node">
<title>op_tail_28</title>
<polygon fill="#d8bfd8" stroke="transparent" points="843,-235.1454 843,-285.1454 932,-285.1454 932,-235.1454 843,-235.1454"/>
<polygon fill="none" stroke="#000000" points="843.5,-260.1454 843.5,-285.1454 866.5,-285.1454 866.5,-260.1454 843.5,-260.1454"/>
<text text-anchor="start" x="848.5" y="-268.9454" font-family="Times,serif" font-size="14.00" fill="#000000">●</text>
<polygon fill="none" stroke="#000000" points="866.5,-235.1454 866.5,-285.1454 909.5,-285.1454 909.5,-235.1454 866.5,-235.1454"/>
<text text-anchor="start" x="871.5" y="-256.4454" font-family="Times,serif" font-size="14.00" fill="#000000"> tail </text>
<polygon fill="none" stroke="#000000" points="909.5,-235.1454 909.5,-285.1454 932.5,-285.1454 932.5,-235.1454 909.5,-235.1454"/>
<text text-anchor="start" x="914.5" y="-256.4454" font-family="Times,serif" font-size="14.00" fill="#000000">●</text>
<polygon fill="none" stroke="#000000" points="843.5,-235.1454 843.5,-260.1454 866.5,-260.1454 866.5,-235.1454 843.5,-235.1454"/>
<text text-anchor="start" x="850" y="-243.9454" font-family="Times,serif" font-size="14.00" fill="#000000">1</text>
</g>
<!-- op_tail_28&#45;&gt;op_add_27 -->
<g id="edge8" class="edge">
<title>op_tail_28:out&#45;&gt;op_add_27:in1</title>
<path fill="none" stroke="#000000" d="M921.5,-235.1454C921.5,-221.0782 955.18,-203.1313 975.8903,-197.7435"/>
<polygon fill="#000000" stroke="#000000" points="976.6692,-201.164 986,-196.1454 975.5761,-194.2498 976.6692,-201.164"/>
</g>
<!-- op_add_29&#45;&gt;op_tail_28 -->
<g id="edge16" class="edge">
<title>op_add_29:out&#45;&gt;op_tail_28:in1</title>
<path fill="none" stroke="#000000" d="M783,-284.1454C806.5932,-284.1454 814.1716,-275.9476 833.3857,-273.706"/>
<polygon fill="#000000" stroke="#000000" points="833.7091,-277.1935 843.5,-273.1454 833.3216,-270.2043 833.7091,-277.1935"/>
</g>
<!-- op_mul_30&#45;&gt;op_add_29 -->
<g id="edge11" class="edge">
<title>op_mul_30:out&#45;&gt;op_add_29:in2</title>
<path fill="none" stroke="#000000" d="M633.5,-271.1454C655.2622,-271.1454 663.1254,-271.1454 680.7614,-271.1454"/>
<polygon fill="#000000" stroke="#000000" points="681,-274.6455 691,-271.1454 681,-267.6455 681,-274.6455"/>
</g>
<!-- op_mul_31&#45;&gt;op_add_27 -->
<g id="edge31" class="edge">
<title>op_mul_31:out&#45;&gt;op_add_27:in2</title>
<path fill="none" stroke="#000000" d="M934.5,-170.1454C953.6337,-170.1454 960.7714,-170.1454 975.969,-170.1454"/>
<polygon fill="#000000" stroke="#000000" points="976,-173.6455 986,-170.1454 976,-166.6455 976,-173.6455"/>
</g>
<!-- op_mul_32&#45;&gt;op_add_25 -->
<g id="edge17" class="edge">
<title>op_mul_32:out&#45;&gt;op_add_25:in2</title>
<path fill="none" stroke="#000000" d="M1379.5,-87.1454C1401.5076,-87.1454 1404.6383,-106.7247 1421.0419,-112.5373"/>
<polygon fill="#000000" stroke="#000000" points="1420.5699,-116.0063 1431,-114.1454 1421.6859,-109.0958 1420.5699,-116.0063"/>
</g>
<!-- mux_1868417466&#45;&gt;struct_cluster_MyManyDynamicElementVecFir_taps_1 -->
<g id="edge2" class="edge">
<title>mux_1868417466:out&#45;&gt;struct_cluster_MyManyDynamicElementVecFir_taps_1:in</title>
<path fill="none" stroke="#000000" d="M187,-160.1454C208.3223,-160.1454 212.6921,-176.5194 228.7167,-181.6363"/>
<polygon fill="#000000" stroke="#000000" points="228.5978,-185.1562 239,-183.1454 229.6142,-178.2304 228.5978,-185.1562"/>
</g>
<!-- mux_1853659045&#45;&gt;mux_1868417466 -->
<g id="edge13" class="edge">
<title>mux_1853659045:out&#45;&gt;mux_1868417466:in2</title>
<path fill="none" stroke="#000000" d="M466.5,-166.1454C466.5,-158.5547 202.5784,-135.5766 195,-135.1454 168.9276,-133.6617 137.2238,-112.4667 128.3862,-125.1444"/>
<polygon fill="#000000" stroke="#000000" points="124.9165,-124.6061 126,-135.1454 131.7253,-126.2307 124.9165,-124.6061"/>
</g>
<!-- mux_703200375&#45;&gt;struct_cluster_MyManyDynamicElementVecFir_taps_2 -->
<g id="edge25" class="edge">
<title>mux_703200375:out&#45;&gt;struct_cluster_MyManyDynamicElementVecFir_taps_2:in</title>
<path fill="none" stroke="#000000" d="M622.5,-135.1454C649.928,-135.1454 653.3158,-110.4261 674.9216,-104.4395"/>
<polygon fill="#000000" stroke="#000000" points="675.5272,-107.8905 685,-103.1454 674.6357,-100.9475 675.5272,-107.8905"/>
</g>
<!-- mux_1815213218&#45;&gt;mux_703200375 -->
<g id="edge36" class="edge">
<title>mux_1815213218:out&#45;&gt;mux_703200375:in2</title>
<path fill="none" stroke="#000000" d="M477.5,-115.1454C506.4011,-115.1454 515.8185,-120.6493 540.3053,-121.8963"/>
<polygon fill="#000000" stroke="#000000" points="540.4174,-125.3999 550.5,-122.1454 540.5885,-118.402 540.4174,-125.3999"/>
</g>
<!-- mux_803137972&#45;&gt;struct_cluster_MyManyDynamicElementVecFir_taps_3 -->
<g id="edge1" class="edge">
<title>mux_803137972:out&#45;&gt;struct_cluster_MyManyDynamicElementVecFir_taps_3:in</title>
<path fill="none" stroke="#000000" d="M1068,-100.1454C1091.7882,-100.1454 1100.1745,-100.1454 1119.7512,-100.1454"/>
<polygon fill="#000000" stroke="#000000" points="1120,-103.6455 1130,-100.1454 1120,-96.6455 1120,-103.6455"/>
</g>
<!-- mux_133522559&#45;&gt;mux_803137972 -->
<g id="edge27" class="edge">
<title>mux_133522559:out&#45;&gt;mux_803137972:in2</title>
<path fill="none" stroke="#000000" d="M923.5,-81.1454C952.1697,-81.1454 961.5781,-85.863 985.8839,-86.9318"/>
<polygon fill="#000000" stroke="#000000" points="985.9283,-90.4335 996,-87.1454 986.0761,-83.435 985.9283,-90.4335"/>
</g>
</g>
</svg>
